# xmcd
#
# Track frame offsets: 
#        150
#        18457
#        35024
#        54906
#        66021
#        80953
#        92983
#        108508
#        118687
#        132292
#        147453
#        164645
#        180305
#
# Disc length: 2626 seconds
#
# Revision: 0
# Processed by: cddbd v1.5.2PL0 Copyright (c) Steve Scherf et al.
# Submitted via: ExactAudioCopy v0.99pb5
#
DISCID=bb0a400d
DTITLE=The Two Birds in Love - The Adventures of Rodeo and Juliet
DYEAR=2009
DGENRE=Country
TTITLE0=I've Fallen
TTITLE1=The Adventures of Rodeo and Juliet
TTITLE2=Mil Besos
TTITLE3=As Far as I'm Concerned
TTITLE4=All the Men in My Life
TTITLE5=Honey-Do List
TTITLE6=Dream a Little Dream of Me
TTITLE7=Save Your Heart for Me
TTITLE8=The Ferris Wheel
TTITLE9=Pennies, Nickels and Dimes
TTITLE10=Dear Someone
TTITLE11=Sit and Watch the Sun Go Down
TTITLE12=Grow Old with Me
EXTD=
EXTT0=
EXTT1=
EXTT2=
EXTT3=
EXTT4=
EXTT5=
EXTT6=
EXTT7=
EXTT8=
EXTT9=
EXTT10=
EXTT11=
EXTT12=
PLAYORDER=
